<svg width="772" height="17" viewBox="0 0 772 17" fill="none" xmlns="http://www.w3.org/2000/svg">
<path d="M772 17C765.958 17 762.803 13.6 760.252 10.8652C757.97 8.42609 756.292 6.65217 752.734 6.65217C749.109 6.65217 747.497 8.42609 745.215 10.8652C742.664 13.6 739.509 17 733.467 17C727.425 17 724.27 13.6 721.719 10.8652C719.437 8.42609 717.759 6.65217 714.201 6.65217C710.643 6.65217 708.964 8.42609 706.682 10.8652C704.131 13.6 700.976 17 694.934 17C688.892 17 685.737 13.6 683.186 10.8652C680.904 8.42609 679.226 6.65217 675.668 6.65217C672.043 6.65217 670.432 8.42609 668.149 10.8652C665.598 13.6 662.443 17 656.401 17C650.36 17 647.205 13.6 644.654 10.8652C642.371 8.42609 640.693 6.65217 637.135 6.65217C633.51 6.65217 631.899 8.42609 629.616 10.8652C626.797 13.6 623.642 17 617.6 17C611.558 17 608.403 13.6 605.852 10.8652C603.57 8.42609 601.891 6.65217 598.334 6.65217C594.709 6.65217 593.097 8.42609 590.815 10.8652C588.264 13.6 585.109 17 579.067 17C573.025 17 569.87 13.6 567.319 10.8652C565.037 8.42609 563.359 6.65217 559.801 6.65217C556.176 6.65217 554.565 8.42609 552.282 10.8652C549.597 13.6 546.442 17 540.4 17C534.358 17 531.203 13.6 528.652 10.8652C526.37 8.42609 524.691 6.65217 521.134 6.65217C517.509 6.65217 515.897 8.42609 513.615 10.8652C511.064 13.6 507.909 17 501.867 17C495.825 17 492.67 13.6 490.119 10.8652C487.837 8.42609 486.159 6.65217 482.601 6.65217C479.043 6.65217 477.365 8.42609 475.082 10.8652C472.464 13.6 469.242 17 463.2 17C457.158 17 454.003 13.6 451.452 10.8652C449.17 8.42609 447.491 6.65217 443.934 6.65217C440.309 6.65217 438.697 8.42609 436.415 10.8652C433.864 13.6 430.709 17 424.667 17C418.625 17 415.47 13.6 412.919 10.8652C410.637 8.42609 408.959 6.65217 405.401 6.65217C401.776 6.65217 400.165 8.42609 397.882 10.8652C395.331 13.6 392.176 17 386.134 17C380.093 17 376.937 13.6 374.386 10.8652C372.104 8.42609 370.426 6.65217 366.868 6.65217C363.31 6.65217 361.632 8.42609 359.349 10.8652C356.798 13.6 353.643 17 347.601 17C341.56 17 338.405 13.6 335.854 10.8652C333.571 8.42609 331.893 6.65217 328.335 6.65217C324.71 6.65217 323.099 8.42609 320.816 10.8652C318.265 13.6 315.11 17 309.069 17C303.027 17 299.872 13.6 297.321 10.8652C295.038 8.42609 293.36 6.65217 289.802 6.65217C286.177 6.65217 284.566 8.42609 282.283 10.8652C279.733 13.6 276.577 17 270.536 17C264.494 17 261.339 13.6 258.788 10.8652C256.505 8.42609 254.827 6.65217 251.269 6.65217C247.644 6.65217 246.033 8.42609 243.751 10.8652C241.2 13.6 238.045 17 232.003 17C225.961 17 222.806 13.6 220.255 10.8652C217.973 8.42609 216.294 6.65217 212.736 6.65217C209.178 6.65217 207.5 8.42609 205.218 10.8652C202.667 13.6 199.512 17 193.47 17C187.428 17 184.273 13.6 181.722 10.8652C179.44 8.42609 177.761 6.65217 174.203 6.65217C170.578 6.65217 168.967 8.42609 166.685 10.8652C164.134 13.6 160.979 17 154.937 17C148.895 17 145.74 13.6 143.189 10.8652C140.907 8.42609 139.229 6.65217 135.671 6.65217C132.046 6.65217 130.434 8.42609 128.152 10.8652C125.601 13.6 122.446 17 116.404 17C110.362 17 107.207 13.6 104.656 10.8652C102.374 8.42609 100.696 6.65217 97.1377 6.65217C93.5127 6.65217 91.9016 8.42609 89.6191 10.8652C86.464 13.6 83.2417 17 77.2 17C71.1583 17 68.0031 13.6 65.4522 10.8652C63.1697 8.42609 61.4915 6.65217 57.9336 6.65217C54.3085 6.65217 52.6974 8.42609 50.415 10.8652C47.864 13.6 44.7089 17 38.6671 17C32.6254 17 29.4703 13.6 26.9193 10.8652C24.5697 8.42609 22.8915 6.65217 19.3336 6.65217C15.7085 6.65217 14.0974 8.42609 11.815 10.8652C9.19687 13.6 6.04174 17 0 17V10.3478C3.62504 10.3478 5.23617 8.57391 7.51861 6.13478C10.0696 3.4 13.2247 0 19.3336 0C25.3753 0 28.5304 3.4 31.0814 6.13478C33.3638 8.57391 35.0421 10.3478 38.6 10.3478C42.225 10.3478 43.8362 8.57391 46.1186 6.13478C48.6696 3.4 51.8918 0 57.9336 0C63.9753 0 67.1304 3.4 69.6814 6.13478C71.9638 8.57391 73.6421 10.3478 77.2 10.3478C80.825 10.3478 82.4362 8.57391 84.7186 6.13478C87.2696 3.4 90.4247 0 96.4664 0C102.508 0 105.663 3.4 108.214 6.13478C110.497 8.57391 112.175 10.3478 115.733 10.3478C119.358 10.3478 120.969 8.57391 123.251 6.13478C125.802 3.4 128.958 0 134.999 0C141.041 0 144.196 3.4 146.747 6.13478C149.03 8.57391 150.708 10.3478 154.266 10.3478C157.891 10.3478 159.502 8.57391 161.784 6.13478C164.335 3.4 167.49 0 173.532 0C179.574 0 182.729 3.4 185.28 6.13478C187.562 8.57391 189.241 10.3478 192.799 10.3478C196.424 10.3478 198.035 8.57391 200.317 6.13478C202.868 3.4 206.023 0 212.065 0C218.107 0 221.262 3.4 223.813 6.13478C226.095 8.57391 227.774 10.3478 231.331 10.3478C234.957 10.3478 236.568 8.57391 238.85 6.13478C241.401 3.4 244.556 0 250.598 0C256.64 0 259.795 3.4 262.346 6.13478C264.628 8.57391 266.306 10.3478 269.864 10.3478C273.422 10.3478 275.101 8.57391 277.383 6.13478C279.934 3.4 283.089 0 289.131 0C295.173 0 298.328 3.4 300.879 6.13478C303.161 8.57391 304.839 10.3478 308.397 10.3478C312.022 10.3478 313.633 8.57391 315.916 6.13478C318.467 3.4 321.622 0 327.664 0C333.705 0 336.861 3.4 339.411 6.13478C341.694 8.57391 343.372 10.3478 346.93 10.3478C350.555 10.3478 352.166 8.57391 354.449 6.13478C357 3.4 360.155 0 366.197 0C372.238 0 375.393 3.4 377.944 6.13478C380.227 8.57391 381.905 10.3478 385.463 10.3478C389.088 10.3478 390.699 8.57391 392.982 6.13478C395.533 3.4 398.688 0 404.729 0C410.771 0 413.926 3.4 416.477 6.13478C418.76 8.57391 420.438 10.3478 423.996 10.3478C427.621 10.3478 429.232 8.57391 431.514 6.13478C434.065 3.4 437.221 0 443.262 0C449.304 0 452.459 3.4 455.01 6.13478C457.293 8.57391 458.971 10.3478 462.529 10.3478C466.154 10.3478 467.765 8.57391 470.047 6.13478C472.598 3.4 475.753 0 481.795 0C487.837 0 490.992 3.4 493.543 6.13478C495.825 8.57391 497.504 10.3478 501.062 10.3478C504.687 10.3478 506.298 8.57391 508.58 6.13478C511.131 3.4 514.286 0 520.328 0C526.37 0 529.525 3.4 532.076 6.13478C534.358 8.57391 536.037 10.3478 539.594 10.3478C543.219 10.3478 544.831 8.57391 547.113 6.13478C550.47 3.4 553.625 0 559.734 0C565.775 0 568.93 3.4 571.481 6.13478C573.764 8.57391 575.442 10.3478 579 10.3478C582.558 10.3478 584.236 8.57391 586.519 6.13478C589.07 3.4 592.225 0 598.266 0C604.308 0 607.463 3.4 610.014 6.13478C612.297 8.57391 613.975 10.3478 617.533 10.3478C621.091 10.3478 622.769 8.57391 625.051 6.13478C627.67 3.4 630.825 0 636.934 0C643.042 0 646.13 3.4 648.681 6.13478C650.964 8.57391 652.642 10.3478 656.2 10.3478C659.758 10.3478 661.436 8.57391 663.719 6.13478C666.27 3.4 669.425 0 675.466 0C681.508 0 684.663 3.4 687.214 6.13478C689.497 8.57391 691.175 10.3478 694.733 10.3478C698.358 10.3478 699.969 8.57391 702.251 6.13478C704.802 3.4 707.958 0 713.999 0C720.041 0 723.196 3.4 725.747 6.13478C728.03 8.57391 729.708 10.3478 733.266 10.3478C736.824 10.3478 738.502 8.57391 740.784 6.13478C743.335 3.4 746.49 0 752.532 0C758.574 0 761.729 3.4 764.28 6.13478C766.562 8.57391 768.241 10.3478 771.799 10.3478V17H772Z" fill="$color-white-smoke"/>
</svg>
